<svg xmlns="http://www.w3.org/2000/svg" width="256" height="256" viewBox="0 0 100 100"><rect width="100" height="100" rx="20" fill="#ff9b2e"></rect><path fill="#fff" d="M10.19 50.26L25.90 58.42Q25.95 58.67 25.95 58.87Q25.95 59.08 25.95 59.33L25.95 59.33Q25.95 60.10 25.44 60.61Q24.93 61.12 24.07 61.12L24.07 61.12Q23.35 61.12 22.28 60.46L22.28 60.46L6.73 51.99Q6.22 51.22 6.22 50.31L6.22 50.31Q6.22 48.88 7.08 48.37L7.08 48.37L24.12 39.65Q25.80 40.26 25.80 41.59L25.80 41.59Q25.80 42.45 25.29 42.94Q24.78 43.42 23.96 43.93L23.96 43.93L10.19 50.26ZM35.95 35.92L35.95 35.92Q35.95 37.45 35.92 39.95Q35.90 42.45 35.82 45.28Q35.75 48.11 35.64 50.97Q35.54 53.83 35.44 56.07L35.44 56.07Q34.78 56.58 33.76 56.58L33.76 56.58Q33.04 56.58 32.58 56.27Q32.12 55.97 32.07 55.30L32.07 55.30Q31.97 53.83 31.87 51.17Q31.77 48.52 31.72 45.51Q31.67 42.50 31.64 39.52Q31.61 36.54 31.61 34.39L31.61 34.39Q32.69 33.73 33.91 33.73L33.91 33.73Q35.95 33.73 35.95 35.92ZM30.95 63.31L30.95 63.31Q30.95 62.09 31.72 61.27Q32.48 60.46 33.81 60.46L33.81 60.46Q35.13 60.46 35.90 61.27Q36.66 62.09 36.66 63.31L36.66 63.31Q36.66 64.54 35.90 65.35Q35.13 66.17 33.81 66.17L33.81 66.17Q32.48 66.17 31.72 65.35Q30.95 64.54 30.95 63.31ZM69.41 50.97L69.41 62.04Q69.41 62.95 68.87 63.57Q68.33 64.18 67.26 64.74L67.26 64.74Q65.99 65.35 63.74 65.81Q61.50 66.27 59.21 66.27L59.21 66.27Q55.64 66.27 52.68 65.30Q49.72 64.33 47.58 62.34Q45.44 60.35 44.26 57.32Q43.09 54.28 43.09 50.15L43.09 50.15Q43.09 46.07 44.31 43.01Q45.54 39.95 47.65 37.94Q49.77 35.92 52.58 34.93Q55.38 33.94 58.54 33.94L58.54 33.94Q60.68 33.94 62.49 34.29Q64.31 34.65 65.58 35.24Q66.86 35.82 67.57 36.54Q68.28 37.25 68.28 37.96L68.28 37.96Q68.28 38.68 67.88 39.19Q67.47 39.70 66.91 39.95L66.91 39.95Q65.53 39.04 63.64 38.24Q61.76 37.45 58.80 37.45L58.80 37.45Q56.35 37.45 54.26 38.27Q52.17 39.09 50.64 40.67Q49.11 42.25 48.24 44.65Q47.37 47.04 47.37 50.15L47.37 50.15Q47.37 53.47 48.27 55.84Q49.16 58.21 50.76 59.74Q52.37 61.27 54.54 62.01Q56.71 62.75 59.26 62.75L59.26 62.75Q61.09 62.75 62.72 62.44Q64.36 62.14 65.27 61.68L65.27 61.68L65.27 52.30L57.57 52.30Q57.42 52.04 57.27 51.61Q57.11 51.17 57.11 50.66L57.11 50.66Q57.11 49.80 57.52 49.31Q57.93 48.83 58.70 48.83L58.70 48.83L67.21 48.83Q68.13 48.83 68.77 49.41Q69.41 50.00 69.41 50.97L69.41 50.97ZM89.81 50.20L74.61 42.20Q74.56 41.94 74.56 41.74Q74.56 41.53 74.56 41.28L74.56 41.28Q74.56 40.57 75.04 40.03Q75.53 39.49 76.39 39.49L76.39 39.49Q76.80 39.49 77.23 39.67Q77.67 39.85 78.18 40.11L78.18 40.11L93.27 48.57Q93.78 49.34 93.78 50.31L93.78 50.31Q93.78 51.07 93.55 51.53Q93.32 51.99 92.92 52.24L92.92 52.24L76.39 60.91Q75.53 60.66 75.12 60.12Q74.71 59.59 74.71 58.98L74.71 58.98Q74.71 58.16 75.19 57.62Q75.68 57.09 76.55 56.68L76.55 56.68L89.81 50.20Z"></path></svg>